<?xml version="1.0" encoding="utf-8"?>
<!-- Generator: Adobe Illustrator 27.0.0, SVG Export Plug-In . SVG Version: 6.00 Build 0)  -->
<svg version="1.1" id="Calque_1" xmlns="http://www.w3.org/2000/svg" xmlns:xlink="http://www.w3.org/1999/xlink" x="0px" y="0px"
	 viewBox="0 0 1000 1000" style="enable-background:new 0 0 1000 1000;" xml:space="preserve">
<style type="text/css">
	.st0{fill:#FFFFFF;}
</style>
<path d="M707.46,1000H292.54C130.97,1000,0,869.03,0,707.46V292.54C0,130.97,130.97,0,292.54,0h414.93
	C869.03,0,1000,130.97,1000,292.54v414.93C1000,869.03,869.03,1000,707.46,1000z"/>
<g>
	<path class="st0" d="M229.76,393.02c30.15-30.24,61.03-61.21,90.99-91.25C421.72,402.63,522.83,503.63,623.5,604.19
		c-29.95,29.76-61.19,60.79-91.52,90.93C432.15,595.32,331.04,494.26,229.76,393.02z"/>
	<path class="st0" d="M770.24,699.53c-44.69,0-88.38,0-132.96,0c0-133.78,0-267.07,0-401.36c44.13,0,88.09,0,132.96,0
		C770.24,431.62,770.24,564.89,770.24,699.53z"/>
	<path class="st0" d="M374.75,569.18c0,44.5,0,88.11,0,132.65c-44.29,0-88.2,0-132.95,0c0-44.1,0-88,0-132.65
		C286.1,569.18,329.67,569.18,374.75,569.18z"/>
</g>
</svg>
