<?xml version="1.0" encoding="UTF-8"?>
<svg id="Layer_1" xmlns="http://www.w3.org/2000/svg" viewBox="0 0 1659.35 112.17">
  <defs>
    <style>
      .cls-1 {
        fill: #231f20;
      }

      .cls-2 {
        fill: #fff;
      }
    </style>
  </defs>
  <g>
    <path d="M0,26.07C8.1,17.97,16.32,9.76,24.45,1.62c27.64,27.88,55.46,55.94,82.92,83.63-7.6,7.82-15.81,16.27-23.71,24.4C55.67,81.69,27.82,53.86,0,26.07Z"/>
    <path d="M148.96,111.35h-36.68V0h36.68v111.35Z"/>
    <path d="M39.5,111.67H2.73v-36.25h36.76v36.25Z"/>
    <g>
      <path class="cls-1" d="M178.51,51.25V1.15h13.89l20.04,32.71h-7.3L224.6,1.15h13.89l.14,50.11h-15.39l-.14-26.91h2.43l-13.31,22.4h-7.44l-13.89-22.4h3.01v26.91h-15.39Z"/>
      <path class="cls-1" d="M273.13,52.4c-4.1,0-7.89-.64-11.35-1.93-3.46-1.29-6.45-3.11-8.98-5.48-2.53-2.36-4.5-5.14-5.91-8.34-1.41-3.2-2.11-6.68-2.11-10.45s.7-7.31,2.11-10.49c1.41-3.17,3.38-5.94,5.91-8.3,2.53-2.36,5.52-4.19,8.98-5.48,3.46-1.29,7.22-1.93,11.27-1.93s7.87.64,11.31,1.93c3.44,1.29,6.42,3.11,8.95,5.48,2.53,2.36,4.5,5.13,5.91,8.3,1.41,3.17,2.11,6.67,2.11,10.49s-.7,7.25-2.11,10.45c-1.41,3.2-3.38,5.98-5.91,8.34-2.53,2.36-5.51,4.19-8.95,5.48-3.44,1.29-7.18,1.93-11.24,1.93ZM273.06,38.72c1.57,0,3.04-.29,4.4-.86,1.36-.57,2.55-1.4,3.58-2.47,1.03-1.07,1.83-2.39,2.4-3.94.57-1.55.86-3.3.86-5.26s-.29-3.71-.86-5.26c-.57-1.55-1.37-2.86-2.4-3.94-1.03-1.07-2.22-1.9-3.58-2.47-1.36-.57-2.83-.86-4.4-.86s-3.04.29-4.4.86c-1.36.57-2.55,1.4-3.58,2.47-1.03,1.07-1.83,2.39-2.4,3.94-.57,1.55-.86,3.31-.86,5.26s.29,3.71.86,5.26c.57,1.55,1.37,2.86,2.4,3.94,1.03,1.07,2.22,1.9,3.58,2.47,1.36.57,2.83.86,4.4.86Z"/>
      <path class="cls-1" d="M307.49,51.25V1.15h13.89l25.48,30.49h-6.44V1.15h16.46v50.11h-13.89l-25.48-30.49h6.44v30.49h-16.46Z"/>
      <path class="cls-1" d="M375.92,51.25V14.24h-14.67V1.15h46.24v13.1h-14.67v37.01h-16.89Z"/>
      <path class="cls-1" d="M411.85,51.25V1.15h40.73v12.74h-24.12v24.62h25.05v12.74h-41.66ZM427.31,31.92v-12.17h22.33v12.17h-22.33Z"/>
      <path class="cls-1" d="M460.02,51.25V1.15h16.89v37.01h22.62v13.1h-39.51Z"/>
      <path class="cls-1" d="M504.19,51.25V1.15h16.89v50.11h-16.89Z"/>
      <path class="cls-1" d="M555.58,52.4c-4.1,0-7.89-.64-11.35-1.93-3.46-1.29-6.45-3.11-8.98-5.48s-4.5-5.14-5.91-8.34c-1.41-3.2-2.11-6.68-2.11-10.45s.7-7.31,2.11-10.49c1.41-3.17,3.38-5.94,5.91-8.3s5.52-4.19,8.98-5.48c3.46-1.29,7.22-1.93,11.27-1.93s7.87.64,11.31,1.93c3.44,1.29,6.42,3.11,8.95,5.48,2.53,2.36,4.5,5.13,5.91,8.3,1.41,3.17,2.11,6.67,2.11,10.49s-.7,7.25-2.11,10.45c-1.41,3.2-3.38,5.98-5.91,8.34-2.53,2.36-5.51,4.19-8.95,5.48-3.44,1.29-7.18,1.93-11.24,1.93ZM555.51,38.72c1.57,0,3.04-.29,4.4-.86s2.55-1.4,3.58-2.47c1.02-1.07,1.82-2.39,2.4-3.94.57-1.55.86-3.3.86-5.26s-.29-3.71-.86-5.26c-.57-1.55-1.37-2.86-2.4-3.94-1.03-1.07-2.22-1.9-3.58-2.47-1.36-.57-2.83-.86-4.4-.86s-3.04.29-4.4.86c-1.36.57-2.55,1.4-3.58,2.47-1.03,1.07-1.82,2.39-2.4,3.94-.57,1.55-.86,3.31-.86,5.26s.29,3.71.86,5.26c.57,1.55,1.37,2.86,2.4,3.94,1.03,1.07,2.22,1.9,3.58,2.47s2.83.86,4.4.86Z"/>
      <path class="cls-1" d="M589.94,51.25V1.15h13.89l25.48,30.49h-6.44V1.15h16.46v50.11h-13.89l-25.48-30.49h6.44v30.49h-16.46Z"/>
      <path class="cls-1" d="M204.35,111.67c-3.82,0-7.36-.63-10.63-1.9-3.27-1.26-6.11-3.05-8.52-5.37-2.41-2.31-4.28-5.05-5.62-8.2-1.34-3.15-2-6.59-2-10.31s.67-7.16,2-10.31c1.34-3.15,3.22-5.88,5.65-8.2,2.43-2.31,5.27-4.1,8.52-5.37,3.24-1.26,6.8-1.9,10.67-1.9,4.1,0,7.85.7,11.24,2.11,3.39,1.41,6.25,3.5,8.59,6.26l-6.01,5.65c-1.81-1.96-3.84-3.42-6.08-4.4-2.24-.98-4.68-1.47-7.3-1.47s-5.02.43-7.19,1.29c-2.17.86-4.06,2.08-5.65,3.65-1.6,1.57-2.84,3.44-3.72,5.58-.88,2.15-1.32,4.51-1.32,7.08s.44,4.94,1.32,7.09c.88,2.15,2.12,4.01,3.72,5.58,1.6,1.57,3.48,2.79,5.65,3.65,2.17.86,4.57,1.29,7.19,1.29s5.06-.49,7.3-1.47c2.24-.98,4.27-2.47,6.08-4.47l6.01,5.73c-2.34,2.72-5.2,4.8-8.59,6.23-3.39,1.43-7.16,2.15-11.31,2.15Z"/>
      <path class="cls-1" d="M224.39,110.95l22.55-50.11h9.16l22.62,50.11h-9.73l-19.4-45.17h3.72l-19.33,45.17h-9.59ZM234.77,99.36l2.51-7.3h27.06l2.51,7.3h-32.07Z"/>
      <path class="cls-1" d="M285.09,110.95v-50.11h20.61c4.44,0,8.24.72,11.42,2.15,3.17,1.43,5.62,3.48,7.34,6.16,1.72,2.67,2.58,5.85,2.58,9.52s-.86,6.85-2.58,9.52c-1.72,2.67-4.16,4.72-7.34,6.16-3.17,1.43-6.98,2.15-11.42,2.15h-15.46l4.15-4.37v18.83h-9.31ZM294.39,93.13l-4.15-4.51h15.03c4.1,0,7.19-.87,9.27-2.61,2.08-1.74,3.11-4.19,3.11-7.34s-1.04-5.65-3.11-7.37c-2.08-1.72-5.17-2.58-9.27-2.58h-15.03l4.15-4.58v28.99Z"/>
      <path class="cls-1" d="M336.34,110.95v-50.11h9.31v50.11h-9.31Z"/>
      <path class="cls-1" d="M369.33,110.95v-42.23h-16.61v-7.87h42.52v7.87h-16.61v42.23h-9.31Z"/>
      <path class="cls-1" d="M392.67,110.95l22.55-50.11h9.16l22.62,50.11h-9.74l-19.4-45.17h3.72l-19.33,45.17h-9.59ZM403.05,99.36l2.51-7.3h27.06l2.51,7.3h-32.07Z"/>
      <path class="cls-1" d="M453.37,110.95v-50.11h9.31v42.23h26.2v7.87h-35.5Z"/>
    </g>
  </g>
  <g>
    <path class="cls-2" d="M1020.03,26.57c8.1-8.1,16.32-16.31,24.45-24.45,27.64,27.88,55.46,55.94,82.92,83.63-7.6,7.82-15.81,16.27-23.71,24.4-27.99-27.96-55.84-55.79-83.65-83.59Z"/>
    <path class="cls-2" d="M1168.98,111.85h-36.68V.5h36.68v111.35Z"/>
    <path class="cls-2" d="M1059.52,112.17h-36.76v-36.25h36.76v36.25Z"/>
    <g>
      <path class="cls-2" d="M1198.53,51.75V1.65h13.89l20.04,32.71h-7.3l19.47-32.71h13.89l.14,50.11h-15.39l-.14-26.91h2.43l-13.31,22.4h-7.44l-13.89-22.4h3.01v26.91h-15.39Z"/>
      <path class="cls-2" d="M1293.16,52.9c-4.1,0-7.89-.64-11.35-1.93-3.46-1.29-6.45-3.11-8.98-5.48-2.53-2.36-4.5-5.14-5.91-8.34-1.41-3.2-2.11-6.68-2.11-10.45s.7-7.31,2.11-10.49c1.41-3.17,3.38-5.94,5.91-8.3,2.53-2.36,5.52-4.19,8.98-5.48,3.46-1.29,7.22-1.93,11.27-1.93s7.87.64,11.31,1.93c3.44,1.29,6.42,3.11,8.95,5.48,2.53,2.36,4.5,5.13,5.91,8.3,1.41,3.17,2.11,6.67,2.11,10.49s-.7,7.25-2.11,10.45c-1.41,3.2-3.38,5.98-5.91,8.34-2.53,2.36-5.51,4.19-8.95,5.48-3.44,1.29-7.18,1.93-11.24,1.93ZM1293.09,39.22c1.57,0,3.04-.29,4.4-.86,1.36-.57,2.55-1.4,3.58-2.47,1.03-1.07,1.83-2.39,2.4-3.94.57-1.55.86-3.3.86-5.26s-.29-3.71-.86-5.26c-.57-1.55-1.37-2.86-2.4-3.94-1.03-1.07-2.22-1.9-3.58-2.47-1.36-.57-2.83-.86-4.4-.86s-3.04.29-4.4.86c-1.36.57-2.55,1.4-3.58,2.47-1.03,1.07-1.83,2.39-2.4,3.94-.57,1.55-.86,3.31-.86,5.26s.29,3.71.86,5.26c.57,1.55,1.37,2.86,2.4,3.94,1.03,1.07,2.22,1.9,3.58,2.47,1.36.57,2.83.86,4.4.86Z"/>
      <path class="cls-2" d="M1327.52,51.75V1.65h13.89l25.48,30.49h-6.44V1.65h16.46v50.11h-13.89l-25.48-30.49h6.44v30.49h-16.46Z"/>
      <path class="cls-2" d="M1395.95,51.75V14.74h-14.67V1.65h46.24v13.1h-14.67v37.01h-16.89Z"/>
      <path class="cls-2" d="M1431.88,51.75V1.65h40.73v12.74h-24.12v24.62h25.05v12.74h-41.66ZM1447.34,32.42v-12.17h22.33v12.17h-22.33Z"/>
      <path class="cls-2" d="M1480.05,51.75V1.65h16.89v37.01h22.62v13.1h-39.51Z"/>
      <path class="cls-2" d="M1524.21,51.75V1.65h16.89v50.11h-16.89Z"/>
      <path class="cls-2" d="M1575.61,52.9c-4.1,0-7.89-.64-11.35-1.93-3.46-1.29-6.45-3.11-8.98-5.48s-4.5-5.14-5.91-8.34c-1.41-3.2-2.11-6.68-2.11-10.45s.7-7.31,2.11-10.49c1.41-3.17,3.38-5.94,5.91-8.3s5.52-4.19,8.98-5.48c3.46-1.29,7.22-1.93,11.27-1.93s7.87.64,11.31,1.93c3.44,1.29,6.42,3.11,8.95,5.48,2.53,2.36,4.5,5.13,5.91,8.3,1.41,3.17,2.11,6.67,2.11,10.49s-.7,7.25-2.11,10.45c-1.41,3.2-3.38,5.98-5.91,8.34-2.53,2.36-5.51,4.19-8.95,5.48-3.44,1.29-7.18,1.93-11.24,1.93ZM1575.54,39.22c1.57,0,3.04-.29,4.4-.86s2.55-1.4,3.58-2.47c1.02-1.07,1.82-2.39,2.4-3.94.57-1.55.86-3.3.86-5.26s-.29-3.71-.86-5.26c-.57-1.55-1.37-2.86-2.4-3.94-1.03-1.07-2.22-1.9-3.58-2.47-1.36-.57-2.83-.86-4.4-.86s-3.04.29-4.4.86c-1.36.57-2.55,1.4-3.58,2.47-1.03,1.07-1.82,2.39-2.4,3.94-.57,1.55-.86,3.31-.86,5.26s.29,3.71.86,5.26c.57,1.55,1.37,2.86,2.4,3.94,1.03,1.07,2.22,1.9,3.58,2.47s2.83.86,4.4.86Z"/>
      <path class="cls-2" d="M1609.96,51.75V1.65h13.89l25.48,30.49h-6.44V1.65h16.46v50.11h-13.89l-25.48-30.49h6.44v30.49h-16.46Z"/>
      <path class="cls-2" d="M1224.37,112.17c-3.82,0-7.36-.63-10.63-1.9-3.27-1.26-6.11-3.05-8.52-5.37-2.41-2.31-4.28-5.05-5.62-8.2-1.34-3.15-2-6.59-2-10.31s.67-7.16,2-10.31c1.34-3.15,3.22-5.88,5.65-8.2,2.43-2.31,5.27-4.1,8.52-5.37,3.24-1.26,6.8-1.9,10.67-1.9,4.1,0,7.85.7,11.24,2.11,3.39,1.41,6.25,3.5,8.59,6.26l-6.01,5.65c-1.81-1.96-3.84-3.42-6.08-4.4-2.24-.98-4.68-1.47-7.3-1.47s-5.02.43-7.19,1.29c-2.17.86-4.06,2.08-5.65,3.65-1.6,1.57-2.84,3.44-3.72,5.58-.88,2.15-1.32,4.51-1.32,7.08s.44,4.94,1.32,7.09c.88,2.15,2.12,4.01,3.72,5.58,1.6,1.57,3.48,2.79,5.65,3.65,2.17.86,4.57,1.29,7.19,1.29s5.06-.49,7.3-1.47c2.24-.98,4.27-2.47,6.08-4.47l6.01,5.73c-2.34,2.72-5.2,4.8-8.59,6.23-3.39,1.43-7.16,2.15-11.31,2.15Z"/>
      <path class="cls-2" d="M1244.41,111.45l22.55-50.11h9.16l22.62,50.11h-9.73l-19.4-45.17h3.72l-19.33,45.17h-9.59ZM1254.79,99.86l2.51-7.3h27.06l2.51,7.3h-32.07Z"/>
      <path class="cls-2" d="M1305.11,111.45v-50.11h20.61c4.44,0,8.24.72,11.42,2.15,3.17,1.43,5.62,3.48,7.34,6.16,1.72,2.67,2.58,5.85,2.58,9.52s-.86,6.85-2.58,9.52c-1.72,2.67-4.16,4.72-7.34,6.16-3.17,1.43-6.98,2.15-11.42,2.15h-15.46l4.15-4.37v18.83h-9.31ZM1314.42,93.63l-4.15-4.51h15.03c4.1,0,7.19-.87,9.27-2.61,2.08-1.74,3.11-4.19,3.11-7.34s-1.04-5.65-3.11-7.37c-2.08-1.72-5.17-2.58-9.27-2.58h-15.03l4.15-4.58v28.99Z"/>
      <path class="cls-2" d="M1356.36,111.45v-50.11h9.31v50.11h-9.31Z"/>
      <path class="cls-2" d="M1389.36,111.45v-42.23h-16.61v-7.87h42.52v7.87h-16.61v42.23h-9.31Z"/>
      <path class="cls-2" d="M1412.7,111.45l22.55-50.11h9.16l22.62,50.11h-9.74l-19.4-45.17h3.72l-19.33,45.17h-9.59ZM1423.08,99.86l2.51-7.3h27.06l2.51,7.3h-32.07Z"/>
      <path class="cls-2" d="M1473.4,111.45v-50.11h9.31v42.23h26.2v7.87h-35.5Z"/>
    </g>
  </g>
</svg>