<?xml version="1.0" encoding="UTF-8"?>
<svg id="Layer_1" xmlns="http://www.w3.org/2000/svg" viewBox="0 0 656.59 138.86">
  <defs>
    <style>
      .cls-1 {
        fill: #fff;
      }
    </style>
  </defs>
  <path class="cls-1" d="M9.05,41.59c8.1-8.1,16.32-16.31,24.45-24.45,27.64,27.88,55.46,55.94,82.92,83.63-7.6,7.82-15.81,16.27-23.71,24.4-27.99-27.96-55.84-55.79-83.65-83.59Z"/>
  <path class="cls-1" d="M158.01,126.87h-36.68V15.52h36.68v111.35Z"/>
  <path class="cls-1" d="M48.55,127.19H11.78v-36.25h36.76v36.25Z"/>
  <g>
    <path class="cls-1" d="M187.56,66.77V16.67h13.89l20.04,32.71h-7.3l19.47-32.71h13.89l.14,50.11h-15.39l-.14-26.91h2.43l-13.31,22.4h-7.44l-13.89-22.4h3.01v26.91h-15.39Z"/>
    <path class="cls-1" d="M282.19,67.92c-4.1,0-7.89-.64-11.35-1.93-3.46-1.29-6.45-3.11-8.98-5.48-2.53-2.36-4.5-5.14-5.91-8.34-1.41-3.2-2.11-6.68-2.11-10.45s.7-7.31,2.11-10.49c1.41-3.17,3.38-5.94,5.91-8.3,2.53-2.36,5.52-4.19,8.98-5.48,3.46-1.29,7.22-1.93,11.27-1.93s7.87.64,11.31,1.93c3.44,1.29,6.42,3.11,8.95,5.48,2.53,2.36,4.5,5.13,5.91,8.3,1.41,3.17,2.11,6.67,2.11,10.49s-.7,7.25-2.11,10.45c-1.41,3.2-3.38,5.98-5.91,8.34-2.53,2.36-5.51,4.19-8.95,5.48-3.44,1.29-7.18,1.93-11.24,1.93ZM282.11,54.25c1.57,0,3.04-.29,4.4-.86,1.36-.57,2.55-1.4,3.58-2.47,1.03-1.07,1.83-2.39,2.4-3.94.57-1.55.86-3.3.86-5.26s-.29-3.71-.86-5.26c-.57-1.55-1.37-2.86-2.4-3.94-1.03-1.07-2.22-1.9-3.58-2.47-1.36-.57-2.83-.86-4.4-.86s-3.04.29-4.4.86c-1.36.57-2.55,1.4-3.58,2.47-1.03,1.07-1.83,2.39-2.4,3.94-.57,1.55-.86,3.31-.86,5.26s.29,3.71.86,5.26c.57,1.55,1.37,2.86,2.4,3.94,1.03,1.07,2.22,1.9,3.58,2.47,1.36.57,2.83.86,4.4.86Z"/>
    <path class="cls-1" d="M316.54,66.77V16.67h13.89l25.48,30.49h-6.44v-30.49h16.46v50.11h-13.89l-25.48-30.49h6.44v30.49h-16.46Z"/>
    <path class="cls-1" d="M384.97,66.77V29.77h-14.67v-13.1h46.24v13.1h-14.67v37.01h-16.89Z"/>
    <path class="cls-1" d="M420.9,66.77V16.67h40.73v12.74h-24.12v24.62h25.05v12.74h-41.66ZM436.36,47.45v-12.17h22.33v12.17h-22.33Z"/>
    <path class="cls-1" d="M469.08,66.77V16.67h16.89v37.01h22.62v13.1h-39.51Z"/>
    <path class="cls-1" d="M513.24,66.77V16.67h16.89v50.11h-16.89Z"/>
    <path class="cls-1" d="M564.63,67.92c-4.1,0-7.89-.64-11.35-1.93-3.46-1.29-6.45-3.11-8.98-5.48s-4.5-5.14-5.91-8.34c-1.41-3.2-2.11-6.68-2.11-10.45s.7-7.31,2.11-10.49c1.41-3.17,3.38-5.94,5.91-8.3s5.52-4.19,8.98-5.48c3.46-1.29,7.22-1.93,11.27-1.93s7.87.64,11.31,1.93c3.44,1.29,6.42,3.11,8.95,5.48,2.53,2.36,4.5,5.13,5.91,8.3,1.41,3.17,2.11,6.67,2.11,10.49s-.7,7.25-2.11,10.45c-1.41,3.2-3.38,5.98-5.91,8.34-2.53,2.36-5.51,4.19-8.95,5.48-3.44,1.29-7.18,1.93-11.24,1.93ZM564.56,54.25c1.57,0,3.04-.29,4.4-.86s2.55-1.4,3.58-2.47c1.02-1.07,1.82-2.39,2.4-3.94.57-1.55.86-3.3.86-5.26s-.29-3.71-.86-5.26c-.57-1.55-1.37-2.86-2.4-3.94-1.03-1.07-2.22-1.9-3.58-2.47-1.36-.57-2.83-.86-4.4-.86s-3.04.29-4.4.86c-1.36.57-2.55,1.4-3.58,2.47-1.03,1.07-1.82,2.39-2.4,3.94-.57,1.55-.86,3.31-.86,5.26s.29,3.71.86,5.26c.57,1.55,1.37,2.86,2.4,3.94,1.03,1.07,2.22,1.9,3.58,2.47s2.83.86,4.4.86Z"/>
    <path class="cls-1" d="M598.99,66.77V16.67h13.89l25.48,30.49h-6.44v-30.49h16.46v50.11h-13.89l-25.48-30.49h6.44v30.49h-16.46Z"/>
    <path class="cls-1" d="M213.4,127.19c-3.82,0-7.36-.63-10.63-1.9-3.27-1.26-6.11-3.05-8.52-5.37-2.41-2.31-4.28-5.05-5.62-8.2-1.34-3.15-2-6.59-2-10.31s.67-7.16,2-10.31c1.34-3.15,3.22-5.88,5.65-8.2,2.43-2.31,5.27-4.1,8.52-5.37,3.24-1.26,6.8-1.9,10.67-1.9,4.1,0,7.85.7,11.24,2.11,3.39,1.41,6.25,3.5,8.59,6.26l-6.01,5.65c-1.81-1.96-3.84-3.42-6.08-4.4-2.24-.98-4.68-1.47-7.3-1.47s-5.02.43-7.19,1.29c-2.17.86-4.06,2.08-5.65,3.65-1.6,1.57-2.84,3.44-3.72,5.58-.88,2.15-1.32,4.51-1.32,7.08s.44,4.94,1.32,7.09c.88,2.15,2.12,4.01,3.72,5.58,1.6,1.57,3.48,2.79,5.65,3.65,2.17.86,4.57,1.29,7.19,1.29s5.06-.49,7.3-1.47c2.24-.98,4.27-2.47,6.08-4.47l6.01,5.73c-2.34,2.72-5.2,4.8-8.59,6.23-3.39,1.43-7.16,2.15-11.31,2.15Z"/>
    <path class="cls-1" d="M233.44,126.47l22.55-50.11h9.16l22.62,50.11h-9.73l-19.4-45.17h3.72l-19.33,45.17h-9.59ZM243.82,114.88l2.51-7.3h27.06l2.51,7.3h-32.07Z"/>
    <path class="cls-1" d="M294.14,126.47v-50.11h20.61c4.44,0,8.24.72,11.42,2.15,3.17,1.43,5.62,3.48,7.34,6.16,1.72,2.67,2.58,5.85,2.58,9.52s-.86,6.85-2.58,9.52c-1.72,2.67-4.16,4.72-7.34,6.16-3.17,1.43-6.98,2.15-11.42,2.15h-15.46l4.15-4.37v18.83h-9.31ZM303.44,108.65l-4.15-4.51h15.03c4.1,0,7.19-.87,9.27-2.61,2.08-1.74,3.11-4.19,3.11-7.34s-1.04-5.65-3.11-7.37c-2.08-1.72-5.17-2.58-9.27-2.58h-15.03l4.15-4.58v28.99Z"/>
    <path class="cls-1" d="M345.39,126.47v-50.11h9.31v50.11h-9.31Z"/>
    <path class="cls-1" d="M378.39,126.47v-42.23h-16.61v-7.87h42.52v7.87h-16.61v42.23h-9.31Z"/>
    <path class="cls-1" d="M401.72,126.47l22.55-50.11h9.16l22.62,50.11h-9.74l-19.4-45.17h3.72l-19.33,45.17h-9.59ZM412.1,114.88l2.51-7.3h27.06l2.51,7.3h-32.07Z"/>
    <path class="cls-1" d="M462.42,126.47v-50.11h9.31v42.23h26.2v7.87h-35.5Z"/>
  </g>
</svg>
